<?xml version="1.0" encoding="UTF-8"?>
<svg xmlns="http://www.w3.org/2000/svg" viewBox="0 0 512 512" width="512" height="512"><g id="outline"><path d="M229.657,306.343a8,8,0,0,0-11.314,0l-32,32A8,8,0,0,0,184,344v32a8,8,0,0,0,8,8h64a8,8,0,0,0,8-8V344a8,8,0,0,0-2.343-5.657ZM248,368H232V352a8,8,0,0,0-16,0v16H200V347.313l24-24,24,24Z"/><path d="M224,264a32,32,0,1,0-32-32A32.036,32.036,0,0,0,224,264Zm0-48a16,16,0,1,1-16,16A16.019,16.019,0,0,1,224,216Z"/><path d="M128,200a32,32,0,1,0,32,32A32.036,32.036,0,0,0,128,200Zm0,48a16,16,0,1,1,16-16A16.019,16.019,0,0,1,128,248Z"/><path d="M344,224a8,8,0,0,0-8,8,16,16,0,0,1-26.665,11.928,8,8,0,0,0-10.671,11.922A32,32,0,0,0,352,232,8,8,0,0,0,344,224Z"/><path d="M128,320a32,32,0,1,0,32,32A32.036,32.036,0,0,0,128,320Zm0,48a16,16,0,1,1,16-16A16.019,16.019,0,0,1,128,368Z"/><path d="M320,320a32,32,0,1,0,32,32A32.036,32.036,0,0,0,320,320Zm0,48a16,16,0,1,1,16-16A16.019,16.019,0,0,1,320,368Z"/><path d="M465.306,114.005a28.1,28.1,0,0,0-27.929-26H392V72a24,24,0,0,0-48,0V88H296V72a24,24,0,0,0-48,0V88H200V72a24,24,0,0,0-48,0V88H104V72a24,24,0,0,0-48,0V88H34a18.021,18.021,0,0,0-18,18V438a18.021,18.021,0,0,0,18,18H414a18.021,18.021,0,0,0,17.882-16H480a8,8,0,0,0,7.979-8.57ZM360,72a8,8,0,0,1,16,0v32a8,8,0,0,1-16,0Zm-96,0a8,8,0,0,1,16,0v32a8,8,0,0,1-16,0Zm-96,0a8,8,0,0,1,16,0v32a8,8,0,0,1-16,0ZM72,72a8,8,0,0,1,16,0v32a8,8,0,0,1-16,0ZM34,104H56a24,24,0,0,0,48,0h48a24,24,0,0,0,48,0h48a24,24,0,0,0,48,0h48a24,24,0,0,0,48,0h24v32H32V106A2,2,0,0,1,34,104ZM416,438a2,2,0,0,1-2,2H34a2,2,0,0,1-2-2V152H416Zm16-14V104h5.377a12.043,12.043,0,0,1,11.97,11.146L471.408,424Z"/><path d="M344,408H304a8,8,0,0,0,0,16h40a8,8,0,0,0,0-16Z"/><path d="M384,408h-8a8,8,0,0,0,0,16h8a8,8,0,0,0,0-16Z"/><path d="M365.122,177.854a8,8,0,0,0-11.268,1.025l-34.392,41.269-9.805-9.805a8,8,0,0,0-11.314,11.314l16,16A8,8,0,0,0,320,240c.121,0,.241,0,.362-.008a8,8,0,0,0,5.784-2.871l40-48A8,8,0,0,0,365.122,177.854Z"/></g></svg>
