<?xml version="1.0"?>
<svg xmlns="http://www.w3.org/2000/svg" xmlns:xlink="http://www.w3.org/1999/xlink" xmlns:svgjs="http://svgjs.com/svgjs" version="1.1" width="512" height="512" x="0" y="0" viewBox="0 0 64 64" style="enable-background:new 0 0 512 512" xml:space="preserve" class=""><g><path xmlns="http://www.w3.org/2000/svg" d="m61 3.998h-58c-1.654 0-3 1.346-3 3v52.004c0 .553.447 1 1 1h62c.553 0 1-.447 1-1v-52.004c0-1.654-1.346-3-3-3zm-59 6h60v48.004h-60zm1-4h1.02c-.552 0-.994.447-.994 1s.452 1 1.005 1c.552 0 1-.447 1-1s-.448-1-1-1h2.988c-.552 0-.994.447-.994 1s.452 1 1.005 1c.552 0 1-.447 1-1s-.448-1-1-1h2.992c-.552 0-.994.447-.994 1s.452 1 1.005 1c.552 0 1-.447 1-1s-.448-1-1-1h50.967c.552 0 1 .448 1 1v1h-51.968-3.003-2.999-2.03v-1c0-.552.448-1 1-1z" fill="#ffffff" data-original="#000000" style="" class=""/><path xmlns="http://www.w3.org/2000/svg" d="m31.999 41.997c4.007 0 7.774-1.561 10.607-4.394s4.394-6.599 4.394-10.606-1.561-7.773-4.394-10.606-6.6-4.394-10.606-4.394-7.773 1.561-10.606 4.394-4.394 6.6-4.394 10.607c-.001 4.007 1.56 7.773 4.393 10.606s6.599 4.393 10.606 4.393zm-9.191-24.192c2.456-2.455 5.721-3.808 9.192-3.808 3.473 0 6.737 1.353 9.192 3.808s3.808 5.719 3.808 9.192-1.353 6.737-3.808 9.192c-2.456 2.456-5.721 3.808-9.193 3.808s-6.737-1.352-9.192-3.807-3.808-5.72-3.807-9.192c0-3.473 1.353-6.737 3.808-9.193z" fill="#ffffff" data-original="#000000" style="" class=""/><path xmlns="http://www.w3.org/2000/svg" d="m40.505 51.005h-17.014c-1.379 0-2.5 1.121-2.5 2.5s1.121 2.5 2.5 2.5h17.014c1.379 0 2.5-1.121 2.5-2.5s-1.121-2.5-2.5-2.5zm-17.014 3c-.275 0-.5-.225-.5-.5s.225-.5.5-.5h17.014c.275 0 .5.225.5.5s-.225.5-.5.5z" fill="#ffffff" data-original="#000000" style="" class=""/><path xmlns="http://www.w3.org/2000/svg" d="m55.005 44.008h-46.014c-.553 0-1 .447-1 1s.447 1 1 1h46.014c.553 0 1-.447 1-1s-.447-1-1-1z" fill="#ffffff" data-original="#000000" style="" class=""/><path xmlns="http://www.w3.org/2000/svg" d="m46.003 47.009h-28.01c-.553 0-1 .447-1 1s.447 1 1 1h28.01c.553 0 1-.447 1-1s-.447-1-1-1z" fill="#ffffff" data-original="#000000" style="" class=""/><path xmlns="http://www.w3.org/2000/svg" d="m26.344 32.653c.195.195.451.293.707.293s.512-.098.707-.293l4.242-4.241 4.241 4.241c.195.195.451.293.707.293s.512-.098.707-.293c.391-.391.391-1.023 0-1.414l-4.241-4.241 4.241-4.241c.391-.391.391-1.023 0-1.414s-1.023-.391-1.414 0l-4.241 4.241-4.242-4.241c-.391-.391-1.023-.391-1.414 0s-.391 1.023 0 1.414l4.242 4.241-4.242 4.241c-.391.391-.391 1.024 0 1.414z" fill="#ffffff" data-original="#000000" style="" class=""/></g></svg>
